<mxfile host="app.diagrams.net" modified="2023-10-19T15:59:03.140Z" agent="Mozilla/5.0 (Macintosh; Intel Mac OS X 10_15_7) AppleWebKit/537.36 (KHTML, like Gecko) Chrome/117.0.0.0 Safari/537.36" version="22.0.5" etag="QZXc4b_W-zZHYFi9abGA" type="github">
  <diagram name="Page-1" id="4MpgGlF2i4-l6iMvXOHg">
    <mxGraphModel>
      <root>
        <mxCell id="0" />
        <mxCell id="1" parent="0" />
      </root>
    </mxGraphModel>
  </diagram>
</mxfile>
